<svg xmlns="http://www.w3.org/2000/svg" width="1024" height="1024" viewBox="0 0 1024 1024"><polygon points="540.99,437.44 600.69,235.89 671.44,101.90 602.72,333.76" fill="white" opacity="0.5"/><polygon points="566.58,453.51 696.77,288.49 812.18,190.30 662.36,380.12" fill="white" opacity="0.56"/><polygon points="584.38,477.92 766.50,372.97 910.09,324.59 700.55,445.30" fill="white" opacity="0.62"/><polygon points="591.86,507.20 799.91,477.28 951.21,485.62 711.84,520.00" fill="white" opacity="0.6799999999999999"/><polygon points="587.94,537.17 792.25,586.55 929.66,650.41 694.62,593.55" fill="white" opacity="0.74"/><polyline points="852.00,512.00 784.68,547.65 839.68,602.69" fill="none" stroke="white" stroke-width="6" opacity="1"/><polyline points="887.00,512.00 872.40,615.63" fill="none" stroke="white" stroke-width="4" opacity="0.65"/><polyline points="752.42,752.42 679.61,730.02 679.58,807.83" fill="none" stroke="white" stroke-width="6" opacity="1"/><polyline points="777.17,777.17 693.56,840.12" fill="none" stroke="white" stroke-width="4" opacity="0.65"/><polyline points="512.00,852.00 476.35,784.68 421.31,839.68" fill="none" stroke="white" stroke-width="6" opacity="1"/><polyline points="512.00,887.00 408.37,872.40" fill="none" stroke="white" stroke-width="4" opacity="0.65"/><polyline points="271.58,752.42 293.98,679.61 216.17,679.58" fill="none" stroke="white" stroke-width="6" opacity="1"/><polyline points="246.83,777.17 183.88,693.56" fill="none" stroke="white" stroke-width="4" opacity="0.65"/><polyline points="172.00,512.00 239.32,476.35 184.32,421.31" fill="none" stroke="white" stroke-width="6" opacity="1"/><polyline points="137.00,512.00 151.60,408.37" fill="none" stroke="white" stroke-width="4" opacity="0.65"/><polyline points="271.58,271.58 344.39,293.98 344.42,216.17" fill="none" stroke="white" stroke-width="6" opacity="1"/><polyline points="246.83,246.83 330.44,183.88" fill="none" stroke="white" stroke-width="4" opacity="0.65"/><polyline points="512.00,172.00 547.65,239.32 602.69,184.32" fill="none" stroke="white" stroke-width="6" opacity="1"/><polyline points="512.00,137.00 615.63,151.60" fill="none" stroke="white" stroke-width="4" opacity="0.65"/><polyline points="752.42,271.58 730.02,344.39 807.83,344.42" fill="none" stroke="white" stroke-width="6" opacity="1"/><polyline points="777.17,246.83 840.12,330.44" fill="none" stroke="white" stroke-width="4" opacity="0.65"/><circle cx="512" cy="512" r="225" stroke="white" stroke-width="4" fill="none"/><polyline points="285.87,592.40 308.15,385.33 483.94,273.65 680.86,341.45 750.62,537.68 640.70,714.57 433.87,738.92 285.87,592.40" fill="none" stroke="white" stroke-width="6" opacity="0.8"/></svg>