<svg xmlns="http://www.w3.org/2000/svg" width="1024" height="1024" viewBox="0 0 1024 1024"><polyline points="150.00,400.00 220.00,443.87 290.00,418.48 360.00,509.43 430.00,603.58 500.00,583.80 570.00,474.69 640.00,412.00 710.00,473.71 780.00,583.05 850.00,604.00" fill="none" stroke="white" stroke-width="10" opacity="1.0"/><polyline points="150.00,490.00 220.00,564.78 290.00,459.67 360.00,454.49 430.00,555.69 500.00,637.36 570.00,597.92 640.00,486.42 710.00,441.58 780.00,519.18 850.00,622.68" fill="none" stroke="white" stroke-width="7" opacity="0.8"/><polyline points="150.00,580.00 220.00,662.91 290.00,574.72 360.00,478.17 430.00,493.37 500.00,601.42 570.00,667.89 640.00,610.10 710.00,499.93 780.00,474.45 850.00,565.34" fill="none" stroke="white" stroke-width="4" opacity="0.6"/><polyline points="852.00,512.00 784.68,547.65 839.68,602.69" fill="none" stroke="white" stroke-width="6" opacity="1"/><polyline points="887.00,512.00 872.40,615.63" fill="none" stroke="white" stroke-width="4" opacity="0.65"/><polyline points="752.42,752.42 679.61,730.02 679.58,807.83" fill="none" stroke="white" stroke-width="6" opacity="1"/><polyline points="777.17,777.17 693.56,840.12" fill="none" stroke="white" stroke-width="4" opacity="0.65"/><polyline points="512.00,852.00 476.35,784.68 421.31,839.68" fill="none" stroke="white" stroke-width="6" opacity="1"/><polyline points="512.00,887.00 408.37,872.40" fill="none" stroke="white" stroke-width="4" opacity="0.65"/><polyline points="271.58,752.42 293.98,679.61 216.17,679.58" fill="none" stroke="white" stroke-width="6" opacity="1"/><polyline points="246.83,777.17 183.88,693.56" fill="none" stroke="white" stroke-width="4" opacity="0.65"/><polyline points="172.00,512.00 239.32,476.35 184.32,421.31" fill="none" stroke="white" stroke-width="6" opacity="1"/><polyline points="137.00,512.00 151.60,408.37" fill="none" stroke="white" stroke-width="4" opacity="0.65"/><polyline points="271.58,271.58 344.39,293.98 344.42,216.17" fill="none" stroke="white" stroke-width="6" opacity="1"/><polyline points="246.83,246.83 330.44,183.88" fill="none" stroke="white" stroke-width="4" opacity="0.65"/><polyline points="512.00,172.00 547.65,239.32 602.69,184.32" fill="none" stroke="white" stroke-width="6" opacity="1"/><polyline points="512.00,137.00 615.63,151.60" fill="none" stroke="white" stroke-width="4" opacity="0.65"/><polyline points="752.42,271.58 730.02,344.39 807.83,344.42" fill="none" stroke="white" stroke-width="6" opacity="1"/><polyline points="777.17,246.83 840.12,330.44" fill="none" stroke="white" stroke-width="4" opacity="0.65"/><circle cx="512" cy="512" r="225" stroke="white" stroke-width="4" fill="none"/><polyline points="598.97,735.69 288.31,598.97 425.03,288.31 735.69,425.03 598.97,735.69" fill="none" stroke="white" stroke-width="6" opacity="0.8"/></svg>