<svg xmlns="http://www.w3.org/2000/svg" width="64" height="64" viewBox="0 0 64 64"><defs><linearGradient id="g" x1="0" y1="0" x2="1" y2="1"><stop stop-color="#cfc0b0"/><stop offset=".5" stop-color="#a89a95"/><stop offset="1" stop-color="#3d3440"/></linearGradient></defs><g stroke="#302633" stroke-width="1.2" stroke-linejoin="round"><path d="M12 23h8v-6h6v6h12v-6h6v6h8a5 5 0 0 1 5 5v8a5 5 0 0 1-5 5H12a5 5 0 0 1-5-5v-8a5 5 0 0 1 5-5Z" fill="url(#g)"/><circle cx="32" cy="32" r="10" fill="#241d29"/><circle cx="32" cy="32" r="4" fill="#c96a74" stroke="none"/><path d="M22 32h-6M48 32h-6" stroke="#e6d9ca" stroke-width="2"/></g></svg>
